<svg width="243" height="52" viewBox="0 0 243 52" fill="none" xmlns="http://www.w3.org/2000/svg">
<path d="M64.9627 19.8149C66.7666 17.0106 69.94 15.6085 74.483 15.6085V21.5675C73.9485 21.4674 73.4642 21.4173 73.0299 21.4173C70.5914 21.4173 68.6873 22.1351 67.3177 23.5706C65.9481 24.9727 65.2634 27.0091 65.2634 29.6798V42.6495H59V15.909H64.9627V19.8149Z" fill="black"/>
<path d="M92.2787 37.692C95.1849 37.692 97.6068 36.7238 99.5442 34.7876L102.851 38.6434C101.682 40.0789 100.179 41.1639 98.3417 41.8983C96.5044 42.6328 94.4333 43 92.1284 43C89.1888 43 86.6 42.4158 84.3619 41.2473C82.1238 40.0789 80.3867 38.4598 79.1508 36.39C77.9482 34.2868 77.3469 31.9165 77.3469 29.2792C77.3469 26.6753 77.9315 24.3384 79.1007 22.2686C80.3032 20.1654 81.94 18.5296 84.0111 17.3612C86.1156 16.1927 88.4873 15.6085 91.1263 15.6085C93.6316 15.6085 95.9031 16.1593 97.9408 17.261C100.012 18.3293 101.649 19.8816 102.851 21.9181C104.054 23.9211 104.655 26.2747 104.655 28.9788L84.1614 32.9848C84.7961 34.5205 85.815 35.6889 87.218 36.4901C88.6209 37.2913 90.3079 37.692 92.2787 37.692ZM91.1263 20.6161C88.8214 20.6161 86.9507 21.3672 85.5143 22.8695C84.1113 24.3718 83.4098 26.3915 83.4098 28.9287V28.9788L98.5421 26.0744C98.1078 24.4385 97.2226 23.1199 95.8864 22.1184C94.5837 21.1168 92.9969 20.6161 91.1263 20.6161Z" fill="black"/>
<path d="M136.828 15.909V42.6495H130.866V39.1942C129.83 40.4628 128.544 41.4143 127.007 42.0486C125.504 42.6829 123.834 43 121.997 43C119.391 43 117.053 42.4325 114.982 41.2974C112.944 40.1624 111.341 38.5599 110.172 36.4901C109.036 34.4203 108.468 32.0167 108.468 29.2792C108.468 26.5417 109.036 24.1548 110.172 22.1184C111.341 20.0486 112.944 18.4461 114.982 17.3111C117.053 16.176 119.391 15.6085 121.997 15.6085C123.734 15.6085 125.321 15.909 126.757 16.5099C128.227 17.1108 129.496 17.9954 130.565 19.1639V15.909H136.828ZM122.698 37.6419C125.003 37.6419 126.907 36.8741 128.41 35.3384C129.914 33.8027 130.665 31.783 130.665 29.2792C130.665 26.7754 129.914 24.7557 128.41 23.22C126.907 21.6844 125.003 20.9165 122.698 20.9165C120.393 20.9165 118.489 21.6844 116.986 23.22C115.516 24.7557 114.781 26.7754 114.781 29.2792C114.781 31.783 115.516 33.8027 116.986 35.3384C118.489 36.8741 120.393 37.6419 122.698 37.6419Z" fill="black"/>
<path d="M157.299 43C154.527 43 152.038 42.4158 149.833 41.2473C147.629 40.0789 145.908 38.4598 144.672 36.39C143.436 34.2868 142.818 31.9165 142.818 29.2792C142.818 26.6419 143.436 24.2883 144.672 22.2185C145.908 20.1487 147.612 18.5296 149.783 17.3612C151.988 16.1927 154.493 15.6085 157.299 15.6085C159.938 15.6085 162.243 16.1426 164.214 17.2109C166.218 18.2792 167.722 19.8149 168.724 21.8179L163.913 24.6222C163.145 23.3869 162.176 22.4689 161.007 21.868C159.872 21.2337 158.619 20.9165 157.249 20.9165C154.911 20.9165 152.973 21.6844 151.437 23.22C149.9 24.7223 149.132 26.742 149.132 29.2792C149.132 31.8164 149.884 33.8528 151.387 35.3885C152.923 36.8907 154.878 37.6419 157.249 37.6419C158.619 37.6419 159.872 37.3414 161.007 36.7405C162.176 36.1062 163.145 35.1715 163.913 33.9363L168.724 36.7405C167.688 38.7436 166.168 40.2959 164.164 41.3976C162.193 42.4659 159.905 43 157.299 43Z" fill="black"/>
<path d="M188.925 41.1973C188.19 41.7982 187.289 42.2489 186.22 42.5493C185.184 42.8498 184.082 43 182.913 43C179.973 43 177.701 42.2322 176.098 40.6965C174.495 39.1608 173.693 36.9241 173.693 33.9863V10H179.956V16.1093H187.122V21.1168H179.956V33.8361C179.956 35.1381 180.274 36.1396 180.908 36.8407C181.576 37.5083 182.495 37.8422 183.664 37.8422C185.067 37.8422 186.236 37.475 187.172 36.7405L188.925 41.1973Z" fill="black"/>
<path d="M205.247 43C202.541 43 200.103 42.4158 197.932 41.2473C195.76 40.0789 194.057 38.4598 192.821 36.39C191.618 34.2868 191.017 31.9165 191.017 29.2792C191.017 26.6419 191.618 24.2883 192.821 22.2185C194.057 20.1487 195.76 18.5296 197.932 17.3612C200.103 16.1927 202.541 15.6085 205.247 15.6085C207.986 15.6085 210.442 16.1927 212.613 17.3612C214.784 18.5296 216.471 20.1487 217.674 22.2185C218.91 24.2883 219.528 26.6419 219.528 29.2792C219.528 31.9165 218.91 34.2868 217.674 36.39C216.471 38.4598 214.784 40.0789 212.613 41.2473C210.442 42.4158 207.986 43 205.247 43ZM205.247 37.6419C207.552 37.6419 209.456 36.8741 210.959 35.3384C212.463 33.8027 213.214 31.783 213.214 29.2792C213.214 26.7754 212.463 24.7557 210.959 23.22C209.456 21.6844 207.552 20.9165 205.247 20.9165C202.942 20.9165 201.038 21.6844 199.535 23.22C198.065 24.7557 197.33 26.7754 197.33 29.2792C197.33 31.783 198.065 33.8027 199.535 35.3384C201.038 36.8741 202.942 37.6419 205.247 37.6419Z" fill="black"/>
<path d="M231.48 19.8149C233.284 17.0106 236.457 15.6085 241 15.6085V21.5675C240.466 21.4674 239.981 21.4173 239.547 21.4173C237.108 21.4173 235.204 22.1351 233.835 23.5706C232.465 24.9727 231.78 27.0091 231.78 29.6798V42.6495H225.517V15.909H231.48V19.8149Z" fill="black"/>
<path d="M2 10C2 5.58172 5.58172 2 10 2H42C46.4183 2 50 5.58172 50 10V42C50 46.4183 46.4183 50 42 50H10C5.58172 50 2 46.4183 2 42V10Z" fill="black"/>
<path fill-rule="evenodd" clip-rule="evenodd" d="M66.9627 17.6646C66.1721 18.2544 65.5054 18.9712 64.9627 19.8149V15.909H59V42.6495H65.2634V29.6798C65.2634 27.0091 65.9481 24.9727 67.3177 23.5706C68.5832 22.2442 70.3049 21.5306 72.483 21.4297C72.6622 21.4214 72.8445 21.4173 73.0299 21.4173C73.4642 21.4173 73.9485 21.4674 74.483 21.5675V15.6085C73.7839 15.6085 73.1172 15.6417 72.483 15.7081C70.2357 15.9434 68.3956 16.5956 66.9627 17.6646ZM66.9627 15.2884V13.909H57V44.6495H67.2634V29.6798C67.2634 27.338 67.8597 25.8779 68.7484 24.9681L68.7567 24.9597L68.7648 24.9512C69.6735 23.9987 71.0041 23.4173 73.0299 23.4173C73.3143 23.4173 73.6727 23.4505 74.1146 23.5333L76.1858 23.9214C75.623 25.6003 75.3469 27.3907 75.3469 29.2792C75.3469 32.233 76.024 34.9508 77.4145 37.3827L77.4239 37.3991L77.4336 37.4154C78.8684 39.8181 80.8865 41.6891 83.4363 43.0203C86.0037 44.3606 88.9196 45 92.1284 45C94.6463 45 96.9751 44.5985 99.084 43.7554C101.214 42.9038 103.004 41.6235 104.402 39.9064L105.458 38.6102L99.7647 31.9726L106.513 30.6535C106.678 33.1357 107.3 35.4142 108.418 37.4523L108.424 37.4631L108.43 37.4738C109.777 39.8574 111.643 41.727 114.009 43.0447L114.021 43.0513C116.416 44.364 119.091 45 121.997 45C124.065 45 126.001 44.6427 127.778 43.8943C128.152 43.7395 128.515 43.5685 128.866 43.3812V44.6495H138.828V13.909H128.565V15.1443C128.227 14.969 127.879 14.8082 127.521 14.6617C125.816 13.9494 123.965 13.6085 121.997 13.6085C119.091 13.6085 116.416 14.2444 114.021 15.5572L114.009 15.5639C111.643 16.8815 109.777 18.7511 108.43 21.1347L108.425 21.1442C107.408 22.9666 106.802 24.9948 106.573 27.1989C106.355 24.8925 105.699 22.7786 104.57 20.8946C103.182 18.5478 101.276 16.7346 98.8748 15.4924C96.526 14.2263 93.9291 13.6085 91.1263 13.6085C88.1811 13.6085 85.4698 14.2637 83.0403 15.6125L83.0284 15.6192C80.637 16.9684 78.7425 18.8658 77.3644 21.2758L77.3593 21.2849C77.0249 21.8768 76.733 22.486 76.483 23.1117V13.6085H74.483C71.5927 13.6085 69.0423 14.1372 66.9627 15.2884ZM97.9408 17.261C95.9031 16.1593 93.6316 15.6085 91.1263 15.6085C88.4873 15.6085 86.1156 16.1927 84.0111 17.3612C81.94 18.5296 80.3032 20.1654 79.1007 22.2686C77.9315 24.3384 77.3469 26.6753 77.3469 29.2792C77.3469 31.9165 77.9482 34.2868 79.1508 36.39C80.3867 38.4598 82.1238 40.0789 84.3619 41.2473C86.6 42.4158 89.1888 43 92.1284 43C94.4333 43 96.5044 42.6328 98.3417 41.8983C100.179 41.1639 101.682 40.0789 102.851 38.6434L99.5442 34.7876C99.1598 35.1718 98.7562 35.5179 98.3336 35.8259C96.6265 37.0699 94.6082 37.692 92.2787 37.692C90.3079 37.692 88.6209 37.2913 87.218 36.4901C86.4379 36.0446 85.7765 35.4856 85.2339 34.813C84.8007 34.276 84.4432 33.6666 84.1614 32.9848L104.655 28.9788C104.655 26.2747 104.054 23.9211 102.851 21.9181C101.649 19.8816 100.012 18.3293 97.9408 17.261ZM87.6024 34.35C87.7921 34.4962 87.9945 34.6304 88.2098 34.7534C89.2508 35.3479 90.5797 35.692 92.2787 35.692C94.6906 35.692 96.5927 34.9097 98.1304 33.3729L99.475 32.0292L87.6024 34.35ZM126.757 16.5099C125.321 15.909 123.734 15.6085 121.997 15.6085C119.391 15.6085 117.053 16.176 114.982 17.3111C112.944 18.4461 111.341 20.0486 110.172 22.1184C109.036 24.1548 108.468 26.5417 108.468 29.2792C108.468 32.0167 109.036 34.4203 110.172 36.4901C111.341 38.5599 112.944 40.1624 114.982 41.2974C117.053 42.4325 119.391 43 121.997 43C123.834 43 125.504 42.6828 127.007 42.0486C127.674 41.7734 128.293 41.4386 128.866 41.0441C129.613 40.5292 130.279 39.9125 130.866 39.1942V42.6495H136.828V15.909H130.565V19.1639C129.962 18.5049 129.295 17.9361 128.565 17.4576C128 17.0878 127.398 16.7718 126.757 16.5099ZM94.6771 23.7114L94.6675 23.704C93.7618 23.0077 92.62 22.6161 91.1263 22.6161C89.3066 22.6161 87.983 23.186 86.9681 24.2431C86.4133 24.8398 85.9856 25.5779 85.7199 26.4989L95.6144 24.5998C95.3495 24.2766 95.0409 23.984 94.6869 23.7187L94.6771 23.7114ZM97.7603 24.1879C98.0998 24.7612 98.3604 25.39 98.5421 26.0744L83.4098 28.9788V28.9287C83.4098 28.2149 83.4653 27.5421 83.5764 26.9103C83.86 25.2961 84.506 23.9492 85.5143 22.8695C86.9507 21.3672 88.8214 20.6161 91.1263 20.6161C92.9969 20.6161 94.5836 21.1168 95.8864 22.1184C96.6636 22.7009 97.2883 23.3907 97.7603 24.1879ZM142.955 37.4154L142.948 37.4033C141.517 34.9681 140.818 32.243 140.818 29.2792C140.818 26.3158 141.517 23.6017 142.955 21.1931C144.381 18.8057 146.354 16.9356 148.836 15.6L148.847 15.594C151.374 14.2545 154.208 13.6085 157.299 13.6085C160.209 13.6085 162.851 14.1987 165.161 15.4492C167.523 16.7095 169.323 18.5455 170.512 20.923L171.352 22.6009L163.242 27.3288L162.215 25.6785C161.617 24.7169 160.907 24.065 160.093 23.6468L160.062 23.631L160.032 23.6141C159.21 23.1552 158.296 22.9165 157.249 22.9165C155.396 22.9165 153.982 23.5043 152.851 24.6347L152.843 24.6424L152.835 24.6501C151.752 25.7086 151.132 27.1753 151.132 29.2792C151.132 31.3845 151.738 32.8798 152.801 33.9736C153.921 35.0612 155.35 35.6419 157.249 35.6419C158.311 35.6419 159.236 35.4129 160.062 34.9778C160.895 34.5241 161.615 33.8456 162.215 32.8799L163.242 31.2296L171.373 35.9702L170.5 37.659C169.28 40.02 167.474 41.8603 165.127 43.1503L165.117 43.1559C162.809 44.4068 160.183 45 157.299 45C154.237 45 151.421 44.3522 148.897 43.0145C146.381 41.6811 144.386 39.8105 142.955 37.4154ZM161.007 36.7405C159.872 37.3414 158.619 37.6419 157.249 37.6419C154.878 37.6419 152.923 36.8907 151.387 35.3885C149.884 33.8528 149.132 31.8164 149.132 29.2792C149.132 26.742 149.9 24.7223 151.437 23.22C152.973 21.6844 154.911 20.9165 157.249 20.9165C158.619 20.9165 159.872 21.2337 161.007 21.868C162.176 22.4689 163.145 23.3869 163.913 24.6222L168.724 21.8179C168.509 21.3891 168.272 20.9818 168.011 20.5959C167.901 20.4327 167.787 20.2734 167.669 20.1179C166.76 18.9229 165.608 17.9539 164.214 17.2109C162.243 16.1426 159.938 15.6085 157.299 15.6085C154.493 15.6085 151.988 16.1927 149.783 17.3612C147.612 18.5296 145.908 20.1487 144.672 22.2185C143.436 24.2883 142.818 26.6419 142.818 29.2792C142.818 31.9165 143.436 34.2868 144.672 36.39C145.908 38.4598 147.629 40.0789 149.833 41.2473C152.038 42.4158 154.527 43 157.299 43C159.905 43 162.193 42.4659 164.164 41.3976C165.563 40.6285 166.726 39.6398 167.653 38.4315C167.819 38.2152 167.978 37.9918 168.129 37.7613C168.342 37.4352 168.54 37.0949 168.724 36.7405L163.913 33.9363C163.145 35.1715 162.176 36.1062 161.007 36.7405ZM191.321 41.8222L190.191 42.7456C189.212 43.5461 188.055 44.11 186.769 44.4725C185.54 44.8281 184.251 45 182.913 45C179.629 45 176.798 44.1365 174.715 42.1409C172.602 40.1174 171.693 37.2857 171.693 33.9863V8H181.956V14.1093H189.122V23.1168H181.956V33.8361C181.956 34.7763 182.172 35.2334 182.359 35.4615C182.573 35.657 182.936 35.8422 183.664 35.8422C184.703 35.8422 185.414 35.5777 185.936 35.1675L188.049 33.5086L191.321 41.8222ZM180.908 36.8407C180.274 36.1396 179.956 35.1381 179.956 33.8361V21.1168H187.122V16.1093H179.956V10H173.693V33.9863C173.693 36.9241 174.495 39.1608 176.098 40.6965C177.701 42.2322 179.973 43 182.913 43C184.082 43 185.184 42.8498 186.22 42.5493C187.289 42.2489 188.19 41.7982 188.925 41.1973L187.172 36.7405C186.646 37.1534 186.046 37.4502 185.373 37.6309C184.848 37.7718 184.279 37.8422 183.664 37.8422C182.495 37.8422 181.576 37.5083 180.908 36.8407ZM191.094 37.3991L191.085 37.3827C189.694 34.9508 189.017 32.233 189.017 29.2792C189.017 26.3258 189.694 23.6191 191.091 21.2138L191.097 21.2034L191.104 21.1931C192.529 18.8057 194.502 16.9356 196.984 15.6C199.474 14.2599 202.244 13.6085 205.247 13.6085C208.28 13.6085 211.067 14.258 213.561 15.6C216.044 16.936 218.003 18.8091 219.397 21.2034C220.831 23.6094 221.528 26.32 221.528 29.2792C221.528 32.2416 220.83 34.9657 219.4 37.4C218.006 39.7968 216.045 41.6715 213.561 43.0085C211.067 44.3505 208.28 45 205.247 45C202.244 45 199.474 44.3486 196.984 43.0085C194.502 41.6729 192.529 39.8028 191.104 37.4154L191.094 37.3991ZM217.674 36.39C218.91 34.2868 219.528 31.9165 219.528 29.2792C219.528 26.6419 218.91 24.2883 217.674 22.2185C216.471 20.1487 214.784 18.5296 212.613 17.3612C210.442 16.1927 207.986 15.6085 205.247 15.6085C202.541 15.6085 200.103 16.1927 197.932 17.3612C195.76 18.5296 194.057 20.1487 192.821 22.2185C191.618 24.2883 191.017 26.6419 191.017 29.2792C191.017 31.9165 191.618 34.2868 192.821 36.39C194.057 38.4598 195.76 40.0789 197.932 41.2473C200.103 42.4158 202.541 43 205.247 43C207.986 43 210.442 42.4158 212.613 41.2473C214.784 40.0789 216.471 38.4598 217.674 36.39ZM233.48 17.6646C232.689 18.2544 232.022 18.9712 231.48 19.8149V15.909H225.517V42.6495H231.78V29.6798C231.78 27.0091 232.465 24.9727 233.835 23.5706C235.1 22.2442 236.822 21.5306 239 21.4297C239.179 21.4214 239.362 21.4173 239.547 21.4173C239.981 21.4173 240.466 21.4674 241 21.5675V15.6085C240.301 15.6085 239.634 15.6417 239 15.7081C236.753 15.9434 234.913 16.5956 233.48 17.6646ZM233.48 15.2884C235.559 14.1372 238.11 13.6085 241 13.6085H243V23.9771L240.632 23.5333C240.19 23.4505 239.831 23.4173 239.547 23.4173C237.521 23.4173 236.191 23.9987 235.282 24.9512L235.274 24.9597L235.265 24.9681C234.377 25.8779 233.78 27.338 233.78 29.6798V44.6495H223.517V13.909H233.48V15.2884ZM122.698 35.6419C124.509 35.6419 125.883 35.0608 126.981 33.9394C128.058 32.839 128.665 31.353 128.665 29.2792C128.665 27.2055 128.058 25.7194 126.981 24.6191C125.883 23.4977 124.509 22.9165 122.698 22.9165C120.892 22.9165 119.52 23.4949 118.423 24.6111C117.377 25.7085 116.781 27.1978 116.781 29.2792C116.781 31.3606 117.377 32.8499 118.423 33.9473C119.52 35.0635 120.892 35.6419 122.698 35.6419ZM116.986 35.3384C118.489 36.8741 120.393 37.6419 122.698 37.6419C125.003 37.6419 126.907 36.8741 128.41 35.3384C129.914 33.8027 130.665 31.783 130.665 29.2792C130.665 26.7754 129.914 24.7557 128.41 23.22C126.907 21.6844 125.003 20.9165 122.698 20.9165C120.393 20.9165 118.489 21.6844 116.986 23.22C115.516 24.7557 114.781 26.7754 114.781 29.2792C114.781 31.783 115.516 33.8027 116.986 35.3384ZM205.247 35.6419C207.058 35.6419 208.432 35.0608 209.53 33.9394C210.607 32.839 211.214 31.353 211.214 29.2792C211.214 27.2055 210.607 25.7194 209.53 24.6191C208.432 23.4977 207.058 22.9165 205.247 22.9165C203.441 22.9165 202.069 23.4948 200.972 24.6108C199.926 25.7083 199.33 27.1977 199.33 29.2792C199.33 31.3607 199.926 32.8502 200.972 33.9476C202.069 35.0636 203.441 35.6419 205.247 35.6419ZM199.535 35.3384C198.065 33.8027 197.33 31.783 197.33 29.2792C197.33 26.7754 198.065 24.7557 199.535 23.22C201.038 21.6844 202.942 20.9165 205.247 20.9165C207.552 20.9165 209.456 21.6844 210.959 23.22C212.463 24.7557 213.214 26.7754 213.214 29.2792C213.214 31.783 212.463 33.8027 210.959 35.3384C209.456 36.8741 207.552 37.6419 205.247 37.6419C202.942 37.6419 201.038 36.8741 199.535 35.3384ZM10 0H42C47.5228 0 52 4.47715 52 10V42C52 47.5228 47.5228 52 42 52H10C4.47715 52 0 47.5228 0 42V10C0 4.47715 4.47715 0 10 0ZM10 2C5.58172 2 2 5.58172 2 10V42C2 46.4183 5.58172 50 10 50H42C46.4183 50 50 46.4183 50 42V10C50 5.58172 46.4183 2 42 2H10Z" fill="white"/>
</svg>
